<svg xmlns="http://www.w3.org/2000/svg" viewBox="0 0 100 100">
  <defs>
    <linearGradient id="cupGrad" x1="0%" y1="0%" x2="100%" y2="100%">
      <stop offset="0%" stop-color="#10B981" />
      <stop offset="100%" stop-color="#059669" />
    </linearGradient>
    <linearGradient id="glowGrad" x1="0%" y1="100%" x2="0%" y2="0%">
      <stop offset="0%" stop-color="#34D399" stop-opacity="0.8" />
      <stop offset="100%" stop-color="#10B981" stop-opacity="0" />
    </linearGradient>
  </defs>
  <circle cx="50" cy="50" r="44" fill="none" stroke="url(#glowGrad)" stroke-width="2" stroke-dasharray="4 8" opacity="0.6"/>
  <rect x="32" y="38" width="6" height="24" rx="3" fill="url(#cupGrad)" opacity="0.7" />
  <rect x="62" y="38" width="6" height="24" rx="3" fill="url(#cupGrad)" opacity="0.7" />
  <path d="M40 30 H60 V46 C60 52 55 56 50 56 C45 56 40 52 40 46 V30 Z" fill="url(#cupGrad)" />
  <path d="M46 56 H54 V66 H46 Z" fill="url(#cupGrad)" opacity="0.9" />
  <rect x="38" y="66" width="24" height="6" rx="2" fill="url(#cupGrad)" />
  <path d="M50 14 L52.5 19 L58 19.5 L54 23.5 L55 29 L50 26 L45 29 L46 23.5 L42 19.5 L47.5 19 Z" fill="#FBBF24" />
</svg>
